#tb 0: 1/1000
0,          0,          0,        0,    61776, 1f1fa3cdf865d8c75183f4ba6203b675
0,         33,         33,        0,    61776, ead33ead8fea5bd5d831a79f4c75a590
0,         66,         66,        0,    61776, 9a406b4464989fd4bb7cbcb1b18aeaa7
0,        100,        100,        0,    61776, fab3d228e7032f2cdc440dbfcb17c4c1
0,        133,        133,        0,    61776, f2f3f8b8d9ece21c359c89245157c613
0,        166,        166,        0,    61776, 321f5a8ecb2cec1780013fe72c237bde
0,        200,        200,        0,    61776, 6f025b1f4ef61d261f05ca149a9470e6
0,        233,        233,        0,    61776, 85abcc8d8e6b5f286ed6aa6c588cf416
0,        266,        266,        0,    61776, b28d710dd44389f774aa02edd6327d5c
0,        300,        300,        0,    61776, 79374bef9819eecafa7396d70c80be7f
